<svg width="96" height="79" viewBox="0 0 96 79" fill="none" xmlns="http://www.w3.org/2000/svg">
<path d="M62.2689 37.031C55.3829 42.6567 47.5965 41.2486 44.4277 39.7481C41.2192 38.5908 34.3185 35.007 33.3944 26.0416L33.496 10.9779C33.5041 9.78322 32.1915 9.13809 31.4123 10.0438C27.5933 14.4832 26.9679 21.4754 27.1996 24.8321C28.2119 38.2387 38.2912 44.5119 43.2042 45.9726C54.9548 48.8017 63.1201 44.4671 66.5474 41.2499C67.0972 40.7338 67.0629 39.8786 66.5367 39.3386L64.3651 37.11C63.8055 36.5358 62.89 36.5236 62.2689 37.031Z" fill="#0620E3"/>
<path d="M51.0647 4.5972L51.0847 1.62566C51.0902 0.814515 51.7536 0.156431 52.5627 0.213393C59.2124 0.681511 64.271 3.93482 66.7376 6.21362C67.3 6.73319 67.2741 7.60263 66.7387 8.15008L64.5301 10.4082C63.9706 10.9802 63.0586 10.9939 62.4417 10.4845C58.7698 7.45278 55.0949 6.44745 52.7433 6.26776C51.8517 6.19963 51.0586 5.4914 51.0647 4.5972Z" fill="#0620E3"/>
<path d="M60.452 23.6992C60.452 28.9097 56.1739 33.1803 50.8387 33.1803C45.5035 33.1803 41.2255 28.9097 41.2255 23.6992C41.2255 18.4888 45.5035 14.2182 50.8387 14.2182C56.1739 14.2182 60.452 18.4888 60.452 23.6992Z" stroke="#EC6358" stroke-width="4.99375"/>
<path d="M39.786 3.18287L43.0719 1.76945C44.0454 1.35071 45.1285 2.06931 45.121 3.12901L45.0415 14.4246C45.04 14.6322 44.9946 14.8372 44.9081 15.0259L41.7808 21.8533C41.1256 23.2838 38.9842 22.822 38.9768 21.2486L38.8977 4.53905C38.8949 3.94969 39.2446 3.41574 39.786 3.18287Z" fill="#B64446" stroke="#B64446" stroke-width="0.5875" stroke-linecap="round"/>
<path d="M9.264 66.424L8.736 64.68C8.672 64.4773 8.58667 64.3387 8.48 64.264C7.70133 64.0613 6.90667 63.96 6.096 63.96C4.57067 63.96 3.552 64.3387 3.04 65.096C2.528 65.8427 2.272 67.2133 2.272 69.208C2.272 71.4373 2.98133 72.984 4.4 73.848C5.008 74.2107 5.70667 74.392 6.496 74.392C7.296 74.392 8.05333 74.12 8.768 73.576C8.87467 73.384 9.02933 72.9093 9.232 72.152L9.456 71.288H10.048C10.0053 71.7253 9.984 72.7867 9.984 74.472C8.544 75.0053 7.22133 75.272 6.016 75.272C4.42667 75.272 3.15733 74.84 2.208 73.976C1.184 73.0373 0.672 71.4267 0.672 69.144C0.672 67.8213 0.858667 66.7227 1.232 65.848C1.456 65.3253 1.91467 64.7653 2.608 64.168C3.30133 63.56 4.10133 63.1973 5.008 63.08C5.552 63.0053 6.176 62.968 6.88 62.968C8.256 62.968 9.22667 63.1227 9.792 63.432L9.968 63.608C9.968 64.1413 9.92 65.08 9.824 66.424H9.264ZM11.8529 75V74.456C11.9382 74.4453 12.0502 74.4293 12.1889 74.408C12.3275 74.376 12.4182 74.36 12.4609 74.36C12.5035 74.3493 12.5675 74.328 12.6529 74.296C12.7489 74.264 12.8075 74.2373 12.8289 74.216C12.8502 74.1947 12.8875 74.152 12.9409 74.088C12.9942 74.024 13.0209 73.96 13.0209 73.896C13.0315 73.832 13.0475 73.7467 13.0689 73.64C13.0902 73.5227 13.1009 73.4 13.1009 73.272V69.832C13.1009 68.7333 13.0849 66.9787 13.0529 64.568L13.0369 63.8C13.0262 63.5333 12.9622 63.3627 12.8449 63.288C12.7275 63.2133 12.4929 63.176 12.1409 63.176H11.9329L11.9009 62.648C12.6902 62.552 13.2769 62.4613 13.6609 62.376C14.0449 62.28 14.2582 62.232 14.3009 62.232C14.4822 62.232 14.5729 62.312 14.5729 62.472C14.5942 63.3467 14.6049 64.44 14.6049 65.752C14.6049 67.064 14.5782 68.4667 14.5249 69.96C14.4715 71.4427 14.4449 72.616 14.4449 73.48C14.4449 73.8853 14.5035 74.136 14.6209 74.232C14.7489 74.3173 15.0849 74.392 15.6289 74.456V75H11.8529ZM18.9438 65.32C18.7731 65.32 18.5811 65.192 18.3678 64.936C18.1544 64.6693 18.0478 64.4773 18.0478 64.36C18.0478 64.232 18.1331 64.008 18.3038 63.688C18.4851 63.368 18.6718 63.208 18.8638 63.208C19.0558 63.208 19.2691 63.3093 19.5038 63.512C19.7384 63.704 19.8558 63.928 19.8558 64.184C19.8558 64.44 19.7438 64.696 19.5198 64.952C19.3064 65.1973 19.1144 65.32 18.9438 65.32ZM17.1038 75V74.456C17.6478 74.4133 17.9891 74.344 18.1278 74.248C18.2664 74.1413 18.3358 73.928 18.3358 73.608V70.28C18.3358 69.352 18.3091 68.7067 18.2558 68.344C18.2131 67.9813 18.1384 67.752 18.0318 67.656C17.9251 67.5493 17.7224 67.496 17.4238 67.496H17.1838L17.1518 66.968C17.9411 66.8933 18.5278 66.8133 18.9118 66.728C19.3064 66.632 19.5198 66.584 19.5518 66.584C19.7331 66.584 19.8238 66.6693 19.8238 66.84C19.8238 66.968 19.8184 67.32 19.8078 67.896C19.7651 70.1787 19.7438 72.1467 19.7438 73.8C19.7438 74.0133 19.8291 74.1733 19.9998 74.28C20.1704 74.376 20.4424 74.4347 20.8158 74.456V75H17.1038ZM22.4834 73.08C22.334 72.44 22.2594 71.752 22.2594 71.016C22.2594 70.2693 22.3287 69.5547 22.4674 68.872C22.542 68.552 22.7287 68.2693 23.0274 68.024C23.5074 67.576 23.9394 67.2453 24.3234 67.032C24.718 66.808 25.006 66.68 25.1874 66.648C25.3794 66.616 25.6567 66.6 26.0194 66.6C26.382 66.6 26.7874 66.6427 27.2354 66.728C27.6834 66.8133 27.9767 66.8827 28.1154 66.936C28.0834 67.256 28.0674 68.056 28.0674 69.336H27.5874C27.4807 68.8667 27.3954 68.5307 27.3314 68.328C27.278 68.1253 27.0487 67.9707 26.6434 67.864C26.238 67.7573 25.7527 67.704 25.1874 67.704C24.622 67.704 24.2274 67.9067 24.0034 68.312C23.79 68.7173 23.6834 69.496 23.6834 70.648C23.6834 71.6827 23.8114 72.472 24.0674 73.016C24.366 73.6667 24.9634 73.992 25.8594 73.992C26.1794 73.992 26.5207 73.9013 26.8834 73.72C27.246 73.528 27.5287 73.336 27.7314 73.144L28.0514 72.856L28.3874 73.176C27.9714 73.688 27.6034 74.0827 27.2834 74.36C26.974 74.6373 26.7394 74.8187 26.5794 74.904C25.6727 75.3733 24.6807 75.32 23.6034 74.744C23.166 74.3493 22.7927 73.7947 22.4834 73.08ZM31.0979 72.68L31.1299 66.488C31.1299 65.24 31.0979 64.472 31.0339 64.184C30.9805 63.8853 30.9379 63.6827 30.9059 63.576C30.8845 63.4587 30.8045 63.368 30.6659 63.304C30.5272 63.2293 30.4205 63.192 30.3459 63.192C30.2819 63.1813 30.1272 63.1707 29.8819 63.16L29.8499 62.632C30.6605 62.5573 31.2525 62.4773 31.6259 62.392C31.9992 62.296 32.2019 62.248 32.2339 62.248C32.4259 62.248 32.5219 62.328 32.5219 62.488V63.176L32.5059 70.28C32.8685 70.28 33.3805 69.9333 34.0419 69.24C34.7032 68.5467 35.0339 68.0187 35.0339 67.656C35.0339 67.4747 34.9219 67.384 34.6979 67.384C34.6019 67.384 34.5272 67.3573 34.4739 67.304C34.4205 67.24 34.3939 67.1707 34.3939 67.096C34.3939 66.936 34.4952 66.8507 34.6979 66.84C35.0605 66.872 35.5725 66.888 36.2339 66.888C36.8952 66.888 37.4072 66.872 37.7699 66.84C37.9619 66.84 38.0579 66.9253 38.0579 67.096C38.0579 67.224 37.9992 67.3093 37.8819 67.352C37.7539 67.4053 37.6739 67.432 37.6419 67.432C37.2152 67.6027 36.7085 67.9173 36.1219 68.376C35.5352 68.824 35.0552 69.2347 34.6819 69.608L34.1219 70.168L38.4899 74.52C38.6179 74.648 38.6819 74.7547 38.6819 74.84C38.6819 74.9147 38.6339 74.968 38.5379 75H38.4899C37.6792 75 37.0232 75.0213 36.5219 75.064C34.9112 73.1547 33.9459 72.0347 33.6259 71.704C33.3165 71.3627 33.0285 71.1493 32.7619 71.064C32.6445 71.0213 32.5485 70.984 32.4739 70.952C32.4845 71.1013 32.4899 71.2933 32.4899 71.528L32.4579 73.448V73.72C32.4579 73.784 32.4632 73.848 32.4739 73.912C32.4952 73.976 32.5059 74.0293 32.5059 74.072C32.5165 74.104 32.5432 74.1413 32.5859 74.184C32.6285 74.216 32.6552 74.2427 32.6659 74.264C32.6872 74.2747 32.7352 74.2907 32.8099 74.312C32.8845 74.3333 32.9379 74.3493 32.9699 74.36C33.0019 74.36 33.0712 74.376 33.1779 74.408C33.2952 74.4293 33.3859 74.4453 33.4499 74.456V75H29.9939V74.456C30.2925 74.392 30.4579 74.3547 30.4899 74.344C30.5219 74.3333 30.5805 74.3173 30.6659 74.296C30.7512 74.2747 30.7992 74.2533 30.8099 74.232C30.8312 74.2 30.8685 74.1627 30.9219 74.12C30.9752 74.0773 31.0019 74.0293 31.0019 73.976L31.0819 73.496L31.0979 72.68Z" fill="#0620E3"/>
<path d="M44.2728 75V74.408C44.5928 74.3867 44.8381 74.36 45.0088 74.328C45.1901 74.296 45.3501 74.2267 45.4888 74.12C45.6381 74.0133 45.7128 73.864 45.7128 73.672C45.7128 69.9813 45.6754 66.8987 45.6008 64.424C45.5901 64.1893 45.5048 64.0347 45.3448 63.96C45.1954 63.8747 44.9128 63.8213 44.4968 63.8L44.2728 63.784V63.192C44.8488 63.2347 45.6008 63.256 46.5288 63.256C47.4568 63.256 48.1928 63.2293 48.7368 63.176C49.2808 63.1227 49.6061 63.096 49.7128 63.096H50.0328C50.5874 63.096 51.0728 63.1653 51.4888 63.304C51.9154 63.4427 52.2408 63.608 52.4648 63.8C52.6994 63.992 52.8861 64.2213 53.0248 64.488C53.2488 64.9147 53.3608 65.4107 53.3608 65.976C53.3608 67.0533 52.7688 67.88 51.5848 68.456L51.1048 68.696C52.8861 69.2933 53.7768 70.2587 53.7768 71.592C53.7768 72.5413 53.3874 73.3627 52.6088 74.056C51.8301 74.7493 50.9448 75.096 49.9528 75.096H49.6168C49.3074 75.096 48.8861 75.0747 48.3528 75.032L47.8408 75C47.2648 74.9573 46.6674 74.936 46.0488 74.936C45.4408 74.936 44.8488 74.9573 44.2728 75ZM47.2808 72.76C47.2808 73.3573 47.4621 73.7307 47.8248 73.88C48.1874 74.0293 48.9714 74.104 50.1768 74.104C50.6248 74.104 51.0514 73.88 51.4568 73.432C51.8728 72.984 52.0808 72.376 52.0808 71.608C52.0808 70.8293 51.8301 70.232 51.3288 69.816C50.8274 69.3893 50.1288 69.176 49.2328 69.176C48.3474 69.176 47.7074 69.208 47.3128 69.272C47.2914 70.488 47.2808 71.6507 47.2808 72.76ZM47.3128 68.504C48.0061 68.44 48.5608 68.408 48.9768 68.408C49.3928 68.408 49.7288 68.4187 49.9848 68.44C50.5608 68.2693 50.9768 67.976 51.2328 67.56C51.4888 67.144 51.6168 66.7067 51.6168 66.248C51.6168 65.7787 51.5368 65.384 51.3768 65.064C51.2168 64.7333 51.0301 64.4933 50.8168 64.344C50.3794 64.0347 50.0541 63.88 49.8408 63.88C48.6674 63.88 47.9101 63.944 47.5688 64.072L47.3768 64.248C47.3448 65.752 47.3234 67.1707 47.3128 68.504ZM61.0954 72.632L61.1274 68.84C61.1274 68.072 61.058 67.6507 60.9194 67.576C60.8447 67.5333 60.7114 67.512 60.5194 67.512H60.0074L59.9754 66.984C60.8074 66.9093 61.4047 66.8293 61.7674 66.744C62.1407 66.648 62.3434 66.6 62.3754 66.6C62.5674 66.6 62.6634 66.68 62.6634 66.84C62.6634 68.184 62.642 69.4907 62.5994 70.76C62.5567 72.0293 62.5354 72.7813 62.5354 73.016C62.5354 73.2507 62.6527 73.56 62.8874 73.944C63.1327 74.3173 63.2554 74.536 63.2554 74.6C63.2554 74.6533 63.2074 74.696 63.1114 74.728C62.3647 74.9733 61.9434 75.096 61.8474 75.096C61.762 75.096 61.6714 75.0213 61.5754 74.872C61.49 74.712 61.41 74.52 61.3354 74.296C61.2607 74.072 61.218 73.9547 61.2074 73.944C60.5674 74.392 59.9807 74.7067 59.4474 74.888C58.914 75.0587 58.482 75.144 58.1514 75.144C57.8314 75.144 57.49 74.9893 57.1274 74.68C56.7754 74.3707 56.5407 73.9867 56.4234 73.528C56.3167 73.1867 56.2634 72.5253 56.2634 71.544V68.968C56.2634 68.7013 56.2154 68.3333 56.1194 67.864C56.098 67.7893 56.0287 67.7253 55.9114 67.672C55.794 67.6187 55.7034 67.592 55.6394 67.592C55.5754 67.5813 55.4367 67.576 55.2234 67.576L55.1914 67.032C55.874 66.9573 56.4127 66.8667 56.8074 66.76C57.202 66.6533 57.4207 66.6 57.4634 66.6C57.6554 66.6 57.7514 66.68 57.7514 66.84L57.6874 71.512C57.6874 72.3013 57.73 72.824 57.8154 73.08C57.9114 73.336 58.0554 73.5333 58.2474 73.672C58.45 73.8107 58.6474 73.88 58.8394 73.88C59.042 73.88 59.3194 73.8427 59.6714 73.768C60.034 73.6933 60.3274 73.5973 60.5514 73.48C60.786 73.352 60.9354 73.2453 60.9994 73.16C61.0634 73.064 61.0954 72.888 61.0954 72.632ZM64.53 62.632C65.3193 62.5573 65.906 62.4773 66.29 62.392C66.6847 62.296 66.898 62.248 66.93 62.248C67.1113 62.248 67.202 62.328 67.202 62.488V63.176L67.138 67.608C68.4073 66.9147 69.2287 66.568 69.602 66.568C70.7967 66.568 71.5913 66.9253 71.986 67.64C72.338 68.2693 72.514 69.2293 72.514 70.52C72.514 71.8107 72.2847 72.8027 71.826 73.496C71.7087 73.656 71.458 73.9067 71.074 74.248C70.7007 74.5893 70.3327 74.84 69.97 75C69.6073 75.16 69.1487 75.24 68.594 75.24C68.05 75.24 67.49 75.1493 66.914 74.968C66.338 74.776 65.9487 74.536 65.746 74.248C65.7353 72.936 65.73 71.48 65.73 69.88C65.73 65.7947 65.6713 63.6347 65.554 63.4C65.49 63.2507 65.2767 63.1707 64.914 63.16H64.562L64.53 62.632ZM67.122 69.352C67.1113 69.992 67.106 70.808 67.106 71.8C67.106 72.7813 67.1593 73.3253 67.266 73.432C67.394 73.592 67.666 73.752 68.082 73.912C68.498 74.0613 68.9087 74.136 69.314 74.136C69.7193 74.136 70.034 74.072 70.258 73.944C70.4927 73.8053 70.6633 73.5493 70.77 73.176C70.8873 72.8027 70.9673 72.3067 71.01 71.688C71.0633 71.0693 71.09 70.568 71.09 70.184C71.09 69.8 71.0153 69.416 70.866 69.032C70.7273 68.6373 70.5407 68.3493 70.306 68.168C69.8793 67.8373 69.4367 67.672 68.978 67.672C68.53 67.672 67.9113 67.88 67.122 68.296V69.352ZM73.7325 62.632C74.5218 62.5573 75.1085 62.4773 75.4925 62.392C75.8872 62.296 76.1005 62.248 76.1325 62.248C76.3138 62.248 76.4045 62.328 76.4045 62.488V63.176L76.3405 67.608C77.6098 66.9147 78.4312 66.568 78.8045 66.568C79.9992 66.568 80.7938 66.9253 81.1885 67.64C81.5405 68.2693 81.7165 69.2293 81.7165 70.52C81.7165 71.8107 81.4872 72.8027 81.0285 73.496C80.9112 73.656 80.6605 73.9067 80.2765 74.248C79.9032 74.5893 79.5352 74.84 79.1725 75C78.8098 75.16 78.3512 75.24 77.7965 75.24C77.2525 75.24 76.6925 75.1493 76.1165 74.968C75.5405 74.776 75.1512 74.536 74.9485 74.248C74.9378 72.936 74.9325 71.48 74.9325 69.88C74.9325 65.7947 74.8738 63.6347 74.7565 63.4C74.6925 63.2507 74.4792 63.1707 74.1165 63.16H73.7645L73.7325 62.632ZM76.3245 69.352C76.3138 69.992 76.3085 70.808 76.3085 71.8C76.3085 72.7813 76.3618 73.3253 76.4685 73.432C76.5965 73.592 76.8685 73.752 77.2845 73.912C77.7005 74.0613 78.1112 74.136 78.5165 74.136C78.9218 74.136 79.2365 74.072 79.4605 73.944C79.6952 73.8053 79.8658 73.5493 79.9725 73.176C80.0898 72.8027 80.1698 72.3067 80.2125 71.688C80.2658 71.0693 80.2925 70.568 80.2925 70.184C80.2925 69.8 80.2178 69.416 80.0685 69.032C79.9298 68.6373 79.7432 68.3493 79.5085 68.168C79.0818 67.8373 78.6392 67.672 78.1805 67.672C77.7325 67.672 77.1138 67.88 76.3245 68.296V69.352ZM83.191 75V74.456C83.2763 74.4453 83.3883 74.4293 83.527 74.408C83.6657 74.376 83.7563 74.36 83.799 74.36C83.8417 74.3493 83.9057 74.328 83.991 74.296C84.087 74.264 84.1457 74.2373 84.167 74.216C84.1883 74.1947 84.2257 74.152 84.279 74.088C84.3323 74.024 84.359 73.96 84.359 73.896C84.3697 73.832 84.3857 73.7467 84.407 73.64C84.4283 73.5227 84.439 73.4 84.439 73.272V69.832C84.439 68.7333 84.423 66.9787 84.391 64.568L84.375 63.8C84.3643 63.5333 84.3003 63.3627 84.183 63.288C84.0657 63.2133 83.831 63.176 83.479 63.176H83.271L83.239 62.648C84.0283 62.552 84.615 62.4613 84.999 62.376C85.383 62.28 85.5963 62.232 85.639 62.232C85.8203 62.232 85.911 62.312 85.911 62.472C85.9323 63.3467 85.943 64.44 85.943 65.752C85.943 67.064 85.9163 68.4667 85.863 69.96C85.8097 71.4427 85.783 72.616 85.783 73.48C85.783 73.8853 85.8417 74.136 85.959 74.232C86.087 74.3173 86.423 74.392 86.967 74.456V75H83.191ZM88.7939 68.616C88.9645 68.2213 89.3752 67.7947 90.0259 67.336C90.6765 66.8667 91.2632 66.632 91.7859 66.632C92.3192 66.632 92.7725 66.6907 93.1459 66.808C93.5192 66.9253 93.8125 67.1013 94.0259 67.336C94.2392 67.56 94.4099 67.784 94.5379 68.008C94.6765 68.2213 94.7672 68.4933 94.8099 68.824C94.8952 69.3573 94.9379 69.7627 94.9379 70.04V70.504C94.5965 70.7173 94.0365 70.824 93.2579 70.824H89.9779C89.9779 71.9653 90.0632 72.696 90.2339 73.016C90.4899 73.4853 90.8099 73.7787 91.1939 73.896C91.4392 73.9707 91.7272 74.008 92.0579 74.008C92.9859 74.008 93.8339 73.6293 94.6019 72.872L94.9539 73.24C94.9112 73.2827 94.8099 73.3893 94.6499 73.56C94.4899 73.72 94.3832 73.8267 94.3299 73.88C94.2765 73.9333 94.1752 74.0347 94.0259 74.184C93.8765 74.3227 93.7592 74.4187 93.6739 74.472C93.5992 74.5253 93.4872 74.6053 93.3379 74.712C93.1992 74.8187 93.0765 74.8933 92.9699 74.936C92.8739 74.9787 92.7512 75.032 92.6019 75.096C92.3565 75.192 92.0685 75.24 91.7379 75.24C91.0979 75.24 90.5485 75.1173 90.0899 74.872C89.6419 74.616 89.3059 74.2747 89.0819 73.848C88.6552 73.0693 88.4419 72.1413 88.4419 71.064C88.4419 69.9867 88.5592 69.1707 88.7939 68.616ZM90.0099 70.104H90.9219C92.3405 70.104 93.1832 70.008 93.4499 69.816C93.4499 69.3573 93.3752 68.9627 93.2259 68.632C92.9485 67.992 92.4579 67.672 91.7539 67.672C91.0499 67.672 90.5805 67.8533 90.3459 68.216C90.1219 68.568 90.0099 69.1973 90.0099 70.104Z" fill="#EC6358"/>
</svg>
