<svg width="18" height="19" viewBox="0 0 18 19" fill="none" xmlns="http://www.w3.org/2000/svg">
<path d="M3.31258 13.3333H15.6667V6.58333C15.9862 6.51389 16.2848 6.42 16.5626 6.30167C16.8404 6.18389 17.0973 6.02778 17.3334 5.83333V13.3333C17.3334 13.7917 17.1704 14.1842 16.8442 14.5108C16.5176 14.8369 16.1251 15 15.6667 15H4.00008L0.666748 18.3333V3.33333C0.666748 2.875 0.830081 2.4825 1.15675 2.15583C1.48286 1.82972 1.87508 1.66667 2.33341 1.66667H10.7501C10.6945 1.94444 10.6667 2.22222 10.6667 2.5C10.6667 2.77778 10.6945 3.05556 10.7501 3.33333H2.33341V14.3125L3.31258 13.3333ZM4.00008 11.6667H10.6667V10H4.00008V11.6667ZM4.00008 9.16667H14.0001V7.5H4.00008V9.16667ZM4.00008 6.66667H14.0001V6.58333C13.4862 6.47222 13.0173 6.28111 12.5934 6.01C12.1701 5.73944 11.8056 5.40278 11.5001 5H4.00008V6.66667ZM2.33341 3.33333V13.3333V3.33333ZM14.8334 5C14.139 5 13.5487 4.75694 13.0626 4.27083C12.5765 3.78472 12.3334 3.19444 12.3334 2.5C12.3334 1.80556 12.5765 1.21528 13.0626 0.729167C13.5487 0.243056 14.139 0 14.8334 0C15.5279 0 16.1181 0.243056 16.6042 0.729167C17.0904 1.21528 17.3334 1.80556 17.3334 2.5C17.3334 3.19444 17.0904 3.78472 16.6042 4.27083C16.1181 4.75694 15.5279 5 14.8334 5Z" fill="white"/>
</svg>
