<svg width="20" height="22" viewBox="0 0 20 22" fill="none" xmlns="http://www.w3.org/2000/svg">
<path d="M17 6C16.1667 6 15.4583 5.70833 14.875 5.125C14.2917 4.54167 14 3.83333 14 3C14 2.16667 14.2917 1.45833 14.875 0.875C15.4583 0.291667 16.1667 0 17 0C17.8333 0 18.5417 0.291667 19.125 0.875C19.7083 1.45833 20 2.16667 20 3C20 3.83333 19.7083 4.54167 19.125 5.125C18.5417 5.70833 17.8333 6 17 6ZM0 22V4C0 3.45 0.196 2.979 0.588 2.587C0.979333 2.19567 1.45 2 2 2H12.1C12.0333 2.33333 12 2.66667 12 3C12 3.33333 12.0333 3.66667 12.1 4C12.1833 4.38333 12.3 4.74167 12.45 5.075C12.6 5.40833 12.7833 5.71667 13 6H4V8H17C17.5333 8 18.0583 7.91667 18.575 7.75C19.0917 7.58333 19.5667 7.33333 20 7V16C20 16.55 19.8043 17.021 19.413 17.413C19.021 17.8043 18.55 18 18 18H4L0 22ZM4 11H16V9H4V11ZM4 14H12V12H4V14Z" fill="black"/>
</svg>
