<svg width="25" height="23" viewBox="0 0 25 23" fill="none" xmlns="http://www.w3.org/2000/svg">
<path d="M1.99906 22.214C1.86262 22.2142 1.72757 22.1865 1.60224 22.1326C1.4769 22.0787 1.36392 21.9997 1.27025 21.9005C1.17658 21.8013 1.1042 21.684 1.05756 21.5558C1.01092 21.4276 0.991006 21.2912 0.999056 21.155L1.29906 16.077C1.31349 15.8326 1.41703 15.6021 1.59006 15.429L16.7261 0.292969C16.9136 0.10542 17.1679 5.69466e-05 17.4331 3.09159e-07C17.5645 -0.000103053 17.6948 0.0257125 17.8162 0.0759891C17.9377 0.126266 18.0481 0.199985 18.1411 0.292969L22.9171 5.06897C23.01 5.16184 23.0838 5.27216 23.1341 5.39356C23.1844 5.51495 23.2103 5.64507 23.2103 5.77649C23.2103 5.90791 23.1844 6.03803 23.1341 6.15942C23.0838 6.28082 23.01 6.39108 22.9171 6.48395L7.78006 21.623C7.60711 21.7964 7.37652 21.9003 7.13205 21.915L2.05606 22.215C2.03641 22.216 2.01671 22.216 1.99706 22.215L1.99906 22.214ZM3.27506 16.574L3.06406 20.15L6.63706 19.9399L20.7971 5.77698L17.4351 2.41498L3.27506 16.574Z" fill="#4F453C"/>
<path d="M19.5181 8.99277C19.2529 8.99272 18.9986 8.88729 18.8111 8.69974L14.5111 4.39976C14.3289 4.21115 14.2281 3.95858 14.2304 3.69639C14.2327 3.43419 14.3378 3.18337 14.5232 2.99796C14.7087 2.81255 14.9595 2.70739 15.2217 2.70512C15.4839 2.70284 15.7365 2.8036 15.9251 2.98576L20.2251 7.28574C20.3649 7.42559 20.4601 7.60375 20.4986 7.79771C20.5372 7.99166 20.5174 8.1927 20.4417 8.3754C20.3661 8.5581 20.2379 8.71431 20.0735 8.8242C19.9091 8.93408 19.7158 8.99273 19.5181 8.99277Z" fill="#4F453C"/>
<path d="M5.47806 18.7363C5.28031 18.7363 5.08701 18.6776 4.9226 18.5677C4.75819 18.4578 4.63006 18.3017 4.55439 18.119C4.47872 17.9363 4.4589 17.7353 4.49747 17.5413C4.53604 17.3473 4.63125 17.1692 4.77106 17.0293L16.5871 5.21329C16.7757 5.03114 17.0283 4.93038 17.2905 4.93266C17.5527 4.93493 17.8035 5.04009 17.9889 5.2255C18.1743 5.41091 18.2795 5.66173 18.2817 5.92393C18.284 6.18612 18.1832 6.43869 18.0011 6.6273L6.18506 18.4463C5.99757 18.6339 5.74326 18.7392 5.47806 18.7393V18.7363Z" fill="#4F453C"/>
<path d="M2.56407 18.7276C2.49607 18.7276 2.42807 18.7276 2.35707 18.7376C2.28607 18.7476 2.23207 18.7656 2.16907 18.7756L2.02307 21.2396L4.38707 21.0966C4.41011 21.0063 4.42846 20.9148 4.44206 20.8226C4.4803 20.5569 4.45989 20.2859 4.38225 20.0289C4.3046 19.7718 4.1716 19.5349 3.99261 19.3348C3.81363 19.1346 3.59299 18.9761 3.34619 18.8704C3.0994 18.7646 2.83244 18.7142 2.56407 18.7226V18.7276Z" fill="#4F453C"/>
<path d="M23.2061 22.0537H12.0341C11.7688 22.0537 11.5145 21.9484 11.327 21.7609C11.1394 21.5733 11.0341 21.3189 11.0341 21.0537C11.0341 20.7885 11.1394 20.5342 11.327 20.3466C11.5145 20.1591 11.7688 20.0537 12.0341 20.0537H23.2021C23.4673 20.0537 23.7216 20.1591 23.9092 20.3466C24.0967 20.5342 24.2021 20.7885 24.2021 21.0537C24.2021 21.3189 24.0967 21.5733 23.9092 21.7609C23.7216 21.9484 23.4673 22.0537 23.2021 22.0537H23.2061Z" fill="#4F453C"/>
</svg>
