<svg width="21" height="21" viewBox="0 0 21 21" fill="none" xmlns="http://www.w3.org/2000/svg">
<path d="M19.229 0.676978L19.2048 0.654926C18.7424 0.232607 18.1431 0 17.5172 0C16.8155 0 16.1418 0.297034 15.6688 0.814872L6.72432 10.6073C6.64279 10.6965 6.58095 10.8018 6.54272 10.9165L5.49098 14.0694C5.36938 14.4339 5.43041 14.8371 5.65421 15.1478C5.87979 15.4609 6.24321 15.6478 6.62644 15.6478H6.62649C6.79226 15.6478 6.95428 15.6137 7.10795 15.5465L10.1531 14.2143C10.2639 14.1659 10.3632 14.0948 10.4446 14.0055L19.3892 4.21318C20.32 3.19426 20.2482 1.60804 19.229 0.676978ZM7.50608 13.487L8.12324 11.6368L8.17529 11.5798L9.345 12.6482L9.29295 12.7052L7.50608 13.487ZM18.1139 3.04824L10.5099 11.373L9.34022 10.3046L16.9442 1.97981C17.0929 1.81698 17.2964 1.72728 17.5173 1.72728C17.711 1.72728 17.8966 1.79936 18.0402 1.93052L18.0643 1.95257C18.3801 2.24097 18.4023 2.7325 18.1139 3.04824Z" fill="#040404"/>
<path d="M17.4938 7.9678C17.0169 7.9678 16.6302 8.35448 16.6302 8.83144V16.1636C16.6302 17.3746 15.6449 18.3599 14.4338 18.3599H3.9666C2.75549 18.3599 1.77025 17.3746 1.77025 16.1636V5.78135C1.77025 4.5703 2.75554 3.58501 3.9666 3.58501H11.5428C12.0198 3.58501 12.4065 3.19833 12.4065 2.72137C12.4065 2.24441 12.0198 1.85773 11.5428 1.85773H3.9666C1.80307 1.85773 0.0429688 3.61788 0.0429688 5.78135V16.1635C0.0429688 18.327 1.80312 20.0871 3.9666 20.0871H14.4338C16.5973 20.0871 18.3574 18.327 18.3574 16.1635V8.83144C18.3575 8.35448 17.9708 7.9678 17.4938 7.9678Z" fill="#040404"/>
</svg>
