<svg width="20" height="15" viewBox="0 0 20 20" fill="none" xmlns="http://www.w3.org/2000/svg">
<path d="M9.1272 13.9652C9.23798 14.0758 9.38812 14.138 9.54483 14.138C9.70139 14.138 9.85153 14.0759 9.96231 13.9652L12.0706 11.8568C12.3013 11.6261 12.3013 11.2523 12.0706 11.0216C11.8401 10.791 11.4661 10.791 11.2355 11.0216L9.54483 12.7123L8.77396 11.9414C8.54324 11.7108 8.1694 11.7108 7.93869 11.9414C7.70813 12.1719 7.70813 12.5459 7.93869 12.7766L9.1272 13.9652Z" fill="black"/>
<path d="M10.0047 17.1814C12.5897 17.1814 14.6927 15.0783 14.6927 12.4933C14.6927 9.90829 12.5897 7.80533 10.0047 7.80533C7.41959 7.80533 5.31662 9.90829 5.31662 12.4933C5.31662 15.0783 7.41974 17.1814 10.0047 17.1814ZM10.0047 8.98636C11.9385 8.98636 13.5117 10.5595 13.5117 12.4933C13.5117 14.427 11.9385 16.0004 10.0047 16.0004C8.07098 16.0004 6.49765 14.427 6.49765 12.4933C6.49765 10.5595 8.07098 8.98636 10.0047 8.98636Z" fill="black"/>
<path d="M17.865 1.25748H16.7879V0.590515C16.7879 0.264435 16.5234 0 16.1974 0C15.8713 0 15.6068 0.264435 15.6068 0.590515V1.25748H14.4464V0.590515C14.4464 0.264435 14.182 0 13.8557 0C13.5297 0 13.2652 0.264435 13.2652 0.590515V1.25748H6.74423V0.590515C6.74423 0.264435 6.4798 0 6.15356 0C5.82748 0 5.56305 0.264435 5.56305 0.590515V1.25748H4.40262V0.590515C4.40262 0.264435 4.13818 0 3.81195 0C3.48587 0 3.22144 0.264435 3.22144 0.590515V1.25748H2.14417C1.09116 1.25748 0.234375 2.11426 0.234375 3.16742V18.0902C0.234375 19.1432 1.09116 20 2.14417 20H17.865C18.9182 20 19.7748 19.1432 19.7748 18.0902V3.16742C19.7748 2.11426 18.918 1.25748 17.865 1.25748ZM18.5936 18.0902C18.5936 18.492 18.2668 18.819 17.865 18.819H2.14417C1.7424 18.819 1.41541 18.492 1.41541 18.0902V6.16791H18.5936V18.0902ZM1.41541 3.16742C1.41541 2.7655 1.7424 2.43866 2.14417 2.43866H3.22144V3.10562C3.22144 3.4317 3.48587 3.69614 3.8121 3.69614C4.13818 3.69614 4.40262 3.4317 4.40262 3.10562V2.43866H5.56305V3.10562C5.56305 3.4317 5.82748 3.69614 6.15372 3.69614C6.4798 3.69614 6.74423 3.4317 6.74423 3.10562V2.43866H13.2652V3.10562C13.2652 3.4317 13.5297 3.69614 13.8559 3.69614C14.182 3.69614 14.4464 3.4317 14.4464 3.10562V2.43866H15.6068V3.10562C15.6068 3.4317 15.8713 3.69614 16.1974 3.69614C16.5236 3.69614 16.788 3.4317 16.788 3.10562V2.43866H17.865C18.2668 2.43866 18.5938 2.7655 18.5938 3.16742V4.98672H1.41541V3.16742Z" fill="black"/>
</svg>
