<svg width="40" height="40" viewBox="0 0 40 40" fill="none" xmlns="http://www.w3.org/2000/svg">
<path d="M7.27273 10.5522L8.90182 9L30.1818 29.4356L28.5655 31L24.6455 27.2356C23.1818 27.7 21.6291 27.9444 20 27.9444C13.6364 27.9444 8.20182 24.1433 6 18.7778C6.87818 16.6267 8.27818 14.7322 10.06 13.2289L7.27273 10.5522ZM20 15.1111C21.0126 15.1111 21.9838 15.4974 22.6999 16.1851C23.4159 16.8727 23.8182 17.8053 23.8182 18.7778C23.8188 19.194 23.7457 19.6073 23.6018 20L18.7273 15.3189C19.1362 15.1808 19.5666 15.1105 20 15.1111ZM20 9.61111C26.3636 9.61111 31.7982 13.4122 34 18.7778C32.9613 21.3117 31.1961 23.5111 28.9091 25.1211L27.1018 23.3733C28.8619 22.2041 30.2814 20.6222 31.2255 18.7778C30.1965 16.761 28.5991 15.0619 26.6147 13.8736C24.6303 12.6853 22.3386 12.0554 20 12.0556C18.6127 12.0556 17.2509 12.2756 15.9782 12.6667L14.0182 10.7967C15.8509 10.0389 17.8745 9.61111 20 9.61111ZM8.77455 18.7778C9.80347 20.7945 11.4009 22.4936 13.3853 23.6819C15.3697 24.8703 17.6614 25.5001 20 25.5C20.8782 25.5 21.7436 25.4144 22.5455 25.2433L19.6436 22.4444C18.758 22.3533 17.9316 21.9737 17.3018 21.3689C16.672 20.7641 16.2767 19.9705 16.1818 19.12L11.8545 14.9522C10.5945 15.9911 9.53818 17.2867 8.77455 18.7778Z" fill="#95A5A6"/>
<rect x="0.25" y="0.25" width="39.5" height="39.5" rx="7.75" stroke="black" stroke-width="0.5"/>
</svg>
