<svg width="18" height="18" viewBox="0 0 18 18" fill="none" xmlns="http://www.w3.org/2000/svg">
<path d="M3.87484 13.25C4.58317 12.7083 5.37484 12.2811 6.24984 11.9683C7.12484 11.6561 8.0415 11.5 8.99984 11.5C9.95817 11.5 10.8748 11.6561 11.7498 11.9683C12.6248 12.2811 13.4165 12.7083 14.1248 13.25C14.6109 12.6805 14.9896 12.0347 15.2607 11.3125C15.5312 10.5903 15.6665 9.81944 15.6665 8.99999C15.6665 7.15277 15.0173 5.57971 13.719 4.28082C12.4201 2.98249 10.8471 2.33332 8.99984 2.33332C7.15262 2.33332 5.57984 2.98249 4.2815 4.28082C2.98261 5.57971 2.33317 7.15277 2.33317 8.99999C2.33317 9.81944 2.46873 10.5903 2.73984 11.3125C3.01039 12.0347 3.38873 12.6805 3.87484 13.25ZM8.99984 9.83332C8.18039 9.83332 7.48928 9.55221 6.9265 8.98999C6.36428 8.42721 6.08317 7.7361 6.08317 6.91666C6.08317 6.09721 6.36428 5.4061 6.9265 4.84332C7.48928 4.2811 8.18039 3.99999 8.99984 3.99999C9.81928 3.99999 10.5104 4.2811 11.0732 4.84332C11.6354 5.4061 11.9165 6.09721 11.9165 6.91666C11.9165 7.7361 11.6354 8.42721 11.0732 8.98999C10.5104 9.55221 9.81928 9.83332 8.99984 9.83332ZM8.99984 17.3333C7.84706 17.3333 6.76373 17.1144 5.74984 16.6767C4.73595 16.2394 3.854 15.6458 3.104 14.8958C2.354 14.1458 1.76039 13.2639 1.32317 12.25C0.885393 11.2361 0.666504 10.1528 0.666504 8.99999C0.666504 7.84721 0.885393 6.76388 1.32317 5.74999C1.76039 4.7361 2.354 3.85416 3.104 3.10416C3.854 2.35416 4.73595 1.76027 5.74984 1.32249C6.76373 0.885268 7.84706 0.666656 8.99984 0.666656C10.1526 0.666656 11.2359 0.885268 12.2498 1.32249C13.2637 1.76027 14.1457 2.35416 14.8957 3.10416C15.6457 3.85416 16.2393 4.7361 16.6765 5.74999C17.1143 6.76388 17.3332 7.84721 17.3332 8.99999C17.3332 10.1528 17.1143 11.2361 16.6765 12.25C16.2393 13.2639 15.6457 14.1458 14.8957 14.8958C14.1457 15.6458 13.2637 16.2394 12.2498 16.6767C11.2359 17.1144 10.1526 17.3333 8.99984 17.3333ZM8.99984 15.6667C9.73595 15.6667 10.4304 15.5592 11.0832 15.3442C11.7359 15.1286 12.3332 14.8194 12.8748 14.4167C12.3332 14.0139 11.7359 13.7047 11.0832 13.4892C10.4304 13.2742 9.73595 13.1667 8.99984 13.1667C8.26373 13.1667 7.56928 13.2742 6.9165 13.4892C6.26373 13.7047 5.6665 14.0139 5.12484 14.4167C5.6665 14.8194 6.26373 15.1286 6.9165 15.3442C7.56928 15.5592 8.26373 15.6667 8.99984 15.6667ZM8.99984 8.16666C9.36095 8.16666 9.65956 8.0486 9.89567 7.81249C10.1318 7.57638 10.2498 7.27777 10.2498 6.91666C10.2498 6.55555 10.1318 6.25693 9.89567 6.02082C9.65956 5.78471 9.36095 5.66666 8.99984 5.66666C8.63873 5.66666 8.34012 5.78471 8.104 6.02082C7.86789 6.25693 7.74984 6.55555 7.74984 6.91666C7.74984 7.27777 7.86789 7.57638 8.104 7.81249C8.34012 8.0486 8.63873 8.16666 8.99984 8.16666Z" fill="white"/>
</svg>
