<svg width="22" height="12" viewBox="0 0 22 12" fill="none" xmlns="http://www.w3.org/2000/svg">
<path fill-rule="evenodd" clip-rule="evenodd" d="M14.7917 0.583323C14.7917 0.439664 14.8488 0.301889 14.9504 0.200307C15.052 0.0987249 15.1898 0.0416565 15.3334 0.0416565H17.5001C17.6437 0.0416565 17.7815 0.0987249 17.8831 0.200307C17.9847 0.301889 18.0417 0.439664 18.0417 0.583323V1.66666H19.6667C19.8104 1.66666 19.9482 1.72372 20.0498 1.82531C20.1513 1.92689 20.2084 2.06466 20.2084 2.20832V5.45832H21.8334V6.54166H20.2084V9.79166C20.2084 9.93532 20.1513 10.0731 20.0498 10.1747C19.9482 10.2763 19.8104 10.3333 19.6667 10.3333H18.0417V11.4167C18.0417 11.5603 17.9847 11.6981 17.8831 11.7997C17.7815 11.9013 17.6437 11.9583 17.5001 11.9583H15.3334C15.1898 11.9583 15.052 11.9013 14.9504 11.7997C14.8488 11.6981 14.7917 11.5603 14.7917 11.4167V6.54166H7.20841V11.4167C7.20841 11.5603 7.15135 11.6981 7.04976 11.7997C6.94818 11.9013 6.81041 11.9583 6.66675 11.9583H4.50008C4.35642 11.9583 4.21865 11.9013 4.11707 11.7997C4.01548 11.6981 3.95841 11.5603 3.95841 11.4167V10.3333H2.33341C2.18976 10.3333 2.05198 10.2763 1.9504 10.1747C1.84882 10.0731 1.79175 9.93532 1.79175 9.79166V6.54166H0.166748V5.45832H1.79175V2.20832C1.79175 2.06466 1.84882 1.92689 1.9504 1.82531C2.05198 1.72372 2.18976 1.66666 2.33341 1.66666H3.95841V0.583323C3.95841 0.439664 4.01548 0.301889 4.11707 0.200307C4.21865 0.0987249 4.35642 0.0416565 4.50008 0.0416565H6.66675C6.81041 0.0416565 6.94818 0.0987249 7.04976 0.200307C7.15135 0.301889 7.20841 0.439664 7.20841 0.583323V5.45832H14.7917V0.583323ZM5.04175 10.875H6.12508V1.12499H5.04175V10.875ZM3.95841 2.74999H2.87508V9.24999H3.95841V2.74999ZM18.0417 9.24999V2.74999H19.1251V9.24999H18.0417ZM16.9584 1.12499V10.875H15.8751V1.12499H16.9584Z" fill="white"/>
</svg>
