<svg width="16" height="14" viewBox="0 0 16 14" fill="none" xmlns="http://www.w3.org/2000/svg">
<path d="M6.32046 8.77574C5.88921 8.34524 5.62671 7.76024 5.62671 7.10399C5.62671 5.78924 6.68571 4.72949 7.99971 4.72949C8.64996 4.72949 9.24846 4.99274 9.67221 5.42324" stroke="#454555" stroke-opacity="0.8" stroke-width="1.2" stroke-linecap="round" stroke-linejoin="round"/>
<path d="M10.3288 7.52441C10.1548 8.49191 9.39278 9.25541 8.42603 9.43091" stroke="#454555" stroke-opacity="0.8" stroke-width="1.2" stroke-linecap="round" stroke-linejoin="round"/>
<path d="M3.99101 11.1045C2.80076 10.17 1.79276 8.80498 1.06226 7.10323C1.80026 5.39398 2.81501 4.02148 4.01276 3.07948C5.20301 2.13748 6.57626 1.62598 7.99976 1.62598C9.43151 1.62598 10.804 2.14498 12.0018 3.09373" stroke="#454555" stroke-opacity="0.8" stroke-width="1.2" stroke-linecap="round" stroke-linejoin="round"/>
<path d="M13.5858 4.74316C14.1018 5.42866 14.5556 6.21991 14.9373 7.10266C13.4621 10.5204 10.8551 12.5792 7.99983 12.5792C7.35258 12.5792 6.71433 12.4742 6.10083 12.2694" stroke="#454555" stroke-opacity="0.8" stroke-width="1.2" stroke-linecap="round" stroke-linejoin="round"/>
<path d="M13.9152 1.1875L2.08472 13.018" stroke="#454555" stroke-opacity="0.8" stroke-width="1.2" stroke-linecap="round" stroke-linejoin="round"/>
</svg>
